<svg xmlns="http://www.w3.org/2000/svg" width="87" height="88" viewBox="0 0 87 88" fill="none"><circle cx="43.4999" cy="44" r="43.0331" fill="#61768F"></circle><path d="M62.8218 45.8145L68.588 33.2133L69.5797 21.8123L61.6942 21.8123L55.7279 38.3461L55.8873 51.8242L62.8218 45.8145Z" fill="#FFB300"></path><path d="M39.4609 58.2782L38.8338 21.8487L51.3229 31.6118L51.8573 52.1456L52.1496 69.1269L46.1069 78.557L39.4609 66.1687L39.4609 58.2782Z" fill="#FFB600"></path><path d="M68.329 33.7535C63.4874 30.5506 61.9775 24.4566 61.6938 21.8123L74.1028 21.5986C73.6718 22.4991 73.0699 23.8489 68.329 33.7535Z" fill="white"></path><path d="M57.7608 56.7068C42.8121 47.7484 38.9125 29.6163 38.8312 21.67L50.4067 21.4708C50.559 34.1844 58.7465 42.9972 62.8213 45.8144C62.3956 46.8934 60.7875 50.5823 57.7608 56.7068Z" fill="white"></path><path d="M24.8955 21.3742L12.2187 21.5924C12.0307 52.1718 35.6705 73.2205 47.5139 79.9225C48.5493 77.821 50.5041 73.1021 52.1517 69.216C50.3052 68.1595 48.5301 66.9373 46.8201 65.5624C44.2184 63.4705 41.7675 61.0251 39.4456 58.2723C37.0327 55.4117 34.759 52.219 32.5999 48.7458C26.9975 39.7337 25.1282 27.9783 24.8955 21.3742Z" fill="white"></path></svg>